<?xml version="1.0" encoding="UTF-8" standalone="no"?>
<!-- Created with Inkscape (http://www.inkscape.org/) -->

<svg
   width="200"
   height="200"
   viewBox="0 0 52.916665 52.916666"
   version="1.1"
   id="svg1"
   xml:space="preserve"
   xmlns="http://www.w3.org/2000/svg"
   xmlns:svg="http://www.w3.org/2000/svg"><defs
     id="defs1" /><path
     style="display:inline;fill:#ffffff;stroke-width:1.23909"
     d="m -43.598462,147.65908 c -1.807254,-1.58483 -3.349303,-3.27411 -4.642379,-5.08559 -1.973887,-2.76523 -3.350628,-5.74538 -4.130654,-8.94137 -0.740177,-3.03272 -0.930453,-6.34849 -0.534399,-9.31253 0.463969,-3.47244 1.705263,-6.84708 3.632386,-9.8752 1.434309,-2.25378 3.24875,-4.27576 5.306673,-5.91366 3.402955,-2.70839 7.384321,-4.32123 11.621366,-4.70776 0.7104,-0.0648 1.252309,-0.0818 2.23815,-0.0704 1.110172,0.0129 1.66814,0.051 2.615233,0.17805 2.711203,0.364 5.212178,1.2239 7.473365,2.56953 0.689139,0.41012 1.599803,1.05589 2.217731,1.57264 3.127316,2.61532 5.14995,6.16359 5.833587,10.23373 0.188343,1.12135 0.260719,1.99484 0.260756,3.14726 2.4e-5,0.84386 -0.03258,1.30545 -0.143252,2.02827 -0.590495,3.85675 -2.788634,7.42718 -5.860241,9.5187 -2.533899,1.7254 -5.453704,2.35397 -8.70819,1.87469 -2.249005,-0.33122 -4.22739,-1.27716 -5.65989,-2.70623 -0.671729,-0.67013 -1.184606,-1.38223 -1.616606,-2.24462 -0.625076,-1.24781 -0.9365,-2.5066 -1.003461,-4.05605 l -0.01524,-0.35158 -0.114739,0.0134 c -0.771615,0.0907 -1.429191,1.17038 -1.649504,2.70835 -0.25544,1.78315 0.232554,3.65897 1.41027,5.42099 1.684198,2.51983 4.537439,4.51227 7.768704,5.4249 1.780203,0.50282 3.62095,0.65949 5.519116,0.46977 3.360045,-0.33581 6.731862,-1.76911 9.584668,-4.07425 0.800694,-0.64697 1.798158,-1.59888 2.4460219,-2.33433 3.0191559,-3.42726 4.832122,-7.63786 5.2983213,-12.30528 0.086737,-0.86864 0.098136,-1.1456 0.098013,-2.39448 -8.67e-5,-1.21022 -0.00744,-1.40238 -0.087357,-2.26563 -0.3606899,-3.89783 -1.6664796,-7.84518 -3.8443852,-11.62152 -0.8031354,-1.39256 -1.735212,-2.77199 -2.725712,-4.03389 -0.162235,-0.2067 -0.30586,-0.3903 -0.319154,-0.40802 -0.02739,-0.0364 0.178219,0.13716 0.480485,0.4058 3.7345756,3.31907 6.464092,7.35507 7.9313361,11.72767 1.2059177,3.59382 1.6216112,7.60625 1.1631192,11.22696 -0.9229318,7.28831 -5.2404925,13.96752 -11.4245093,17.67358 -2.7357,1.63949 -5.739961,2.64813 -8.837032,2.9669 -0.866553,0.0893 -1.081277,0.0984 -2.287107,0.0977 -1.236709,-6e-4 -1.528234,-0.0147 -2.448167,-0.11907 -2.625579,-0.29756 -5.110275,-1.07101 -7.29673,-2.27134 -3.317977,-1.82156 -5.866758,-4.54595 -7.376651,-7.88492 -0.801067,-1.77146 -1.31294,-3.75859 -1.485311,-5.76608 -0.0705,-0.82066 -0.09094,-2.01381 -0.04498,-2.61997 0.327655,-4.32064 2.695167,-8.43542 6.153275,-10.69454 0.549604,-0.35903 0.94961,-0.58323 1.496636,-0.83881 1.996129,-0.93268 4.177306,-1.26002 6.567296,-0.98556 1.377757,0.15822 2.601145,0.5069 3.72594,1.06198 0.953413,0.4705 1.69302,0.99508 2.406394,1.70674 0.671941,0.67032 1.185102,1.38291 1.61647,2.24462 0.606888,1.21235 0.918235,2.43957 0.995617,3.92434 l 0.02516,0.48306 0.113749,-0.0133 c 0.947343,-0.11144 1.706601,-1.72941 1.709166,-3.64241 6.44e-4,-0.48522 -0.02503,-0.7866 -0.104453,-1.22409 -0.719187,-3.96388 -4.775915,-7.65805 -9.704278,-8.83699 -1.875639,-0.44868 -3.793123,-0.51912 -5.787567,-0.21263 -3.090862,0.475 -6.137352,1.8564 -8.747134,3.96631 -2.656187,2.14745 -4.761109,4.959 -6.112906,8.16501 -1.009074,2.39319 -1.582419,4.94639 -1.720813,7.66309 -0.03271,0.6419 -0.01351,2.3851 0.03258,2.95638 0.2176,2.69925 0.768207,5.10844 1.757083,7.6881 1.108575,2.8919 2.785103,5.82845 4.791851,8.39319 0.381693,0.48783 0.405831,0.51936 0.3964,0.51792 -0.0037,-6.1e-4 -0.118334,-0.0985 -0.254114,-0.21768 z"
     id="path3"
     transform="translate(53.788112,-97.441575)" /></svg>
